<svg xmlns="http://www.w3.org/2000/svg" xmlns:xlink="http://www.w3.org/1999/xlink" width="33.337" height="36.278" viewBox="0 0 33.337 36.278">
  <defs>
    <clipPath id="clip-Forward_15">
      <rect width="33.337" height="36.278"/>
    </clipPath>
  </defs>
  <g id="Forward_15" data-name="Forward 15" clipPath="url(#clip-Forward_15)">
    <rect width="33.337" height="36.278" fill="rgba(255,255,255,0)"/>
    <g id="Group_237" data-name="Group 237" transform="translate(-246.811 -584.196)">
      <g id="Group_24" data-name="Group 24" transform="translate(246.811 584.196)" opacity="0.502">
        <path id="Path_209" data-name="Path 209" d="M16.668,0a16.668,16.668,0,0,0,0,33.337,1.961,1.961,0,0,0,0-3.922A12.746,12.746,0,1,1,29.415,16.668a1.961,1.961,0,1,0,3.922,0A16.654,16.654,0,0,0,16.668,0Z" transform="translate(0 36.278) rotate(-90)" fill="#fff"/>
        <g id="Group_23" data-name="Group 23" transform="translate(16.528 0)">
          <g id="Group_19" data-name="Group 19" transform="translate(0 0)">
            <path id="Path_199" data-name="Path 199" d="M0,8.719V1.143A1.092,1.092,0,0,1,1.647.155L8.237,4a1.044,1.044,0,0,1,0,1.867L1.647,9.707A1.17,1.17,0,0,1,0,8.719Z" transform="translate(0 0)" fill="#fff"/>
          </g>
        </g>
      </g>
      <text id="_15" data-name="15" transform="translate(256.522 609.773)" fill="#fff" fontSize="15" font-family="Montserrat-Regular, Montserrat"><tspan x="0" y="0">15</tspan></text>
    </g>
  </g>
</svg>
